<svg xmlns="http://www.w3.org/2000/svg" width="33.459" height="41.255" viewBox="0 0 33.459 41.255"><path d="M328.521,505.676a2.474,2.474,0,0,1,.428,1.769,2.432,2.432,0,0,1-.884,1.613c-.387.436-4.414,3.1-5.2,3.638a2.716,2.716,0,0,1-.766.415,2.053,2.053,0,0,1-.932.081l-.038-.008c-4.115-.656-8.872-5.345-13.042-11.159-5.334-7.445-9.739-16.755-10.563-21.657l0-.051a2.508,2.508,0,0,1,.2-1.284l.007-.019a2.444,2.444,0,0,1,.839-.931l1.175-.924a37.861,37.861,0,0,1,3.959-2.914,2.923,2.923,0,0,1,1.771-.238,2.493,2.493,0,0,1,1.461.895l.012.019c.241.35.624.866,1.073,1.476a49.545,49.545,0,0,1,3.729,5.49,2.473,2.473,0,0,1,.085,1.566,2.4,2.4,0,0,1-.846,1.285l-1.844,1.3a1.967,1.967,0,0,0-.689,1.079,1.894,1.894,0,0,0,.127,1.251c1.1,1.966,2.318,3.958,3.627,5.865a47.6,47.6,0,0,0,4.276,5.375,1.881,1.881,0,0,0,2.5.323c.61-.352,1.38-.97,1.989-1.4a2.2,2.2,0,0,1,1.535-.32,2.229,2.229,0,0,1,1.38.858C325.429,501.262,326.961,503.487,328.521,505.676Z" transform="translate(-296.514 -472.957)" fill="none" stroke="#fdac2a" stroke-miterlimit="10" stroke-width="2"/></svg>